<?xml version="1.0" encoding="utf-8"?>
<svg
	version="1.1"
	id="logo" xmlns="http://www.w3.org/2000/svg"
	xmlns:xlink="http://www.w3.org/1999/xlink"
	viewBox="0 0 4947.18 1417.32"
	xml:space="preserve">

	<style type="text/css">
		#fui-logo-lockup-background { fill:#4ABDB2; }
		#fui-logo-lockup-f { fill:#FFFFFF; }
		#fui-logo-lockup-text { fill:#222222; }
	</style>

	<rect
		id="fui-logo-lockup-background"
		width="1417.32"
		height="1417.32"
	/>
	<polygon
		id="fui-logo-lockup-f"
		points="984.6,243.18 431,243.18 431,1173.26 613.46,1173.26 613.46,814.57 973.92,814.57 
		973.92,637.46 614.35,637.46 614.35,418.51 984.6,418.51 "
	/>

	<g id="fui-logo-lockup-text">
		<path d="M1821.59,518.06v160.4h208.8v94.4h-208.8v231.6h-120.8v-580.4h369.6v94H1821.59z"/>
		<path d="M2287.19,585.66c30.93,0,59.06,4.94,84.4,14.8c25.33,9.87,47.06,23.94,65.2,42.2
			c18.13,18.27,32.13,40.47,42,66.6c9.86,26.14,14.8,55.6,14.8,88.4c0,32.8-4.94,62.34-14.8,88.6c-9.87,26.27-23.87,48.6-42,67
			c-18.14,18.4-39.87,32.54-65.2,42.4c-25.34,9.86-53.47,14.8-84.4,14.8c-31.2,0-59.54-4.94-85-14.8c-25.47-9.86-47.27-24-65.4-42.4
			c-18.14-18.4-32.2-40.73-42.2-67c-10-26.26-15-55.8-15-88.6c0-32.8,5-62.26,15-88.4c10-26.13,24.06-48.33,42.2-66.6
			c18.13-18.26,39.93-32.33,65.4-42.2C2227.66,590.6,2255.99,585.66,2287.19,585.66z M2287.19,927.66c31.46,0,54.8-10.86,70-32.6
			c15.2-21.73,22.8-54.06,22.8-97c0-42.66-7.6-74.86-22.8-96.6c-15.2-21.73-38.54-32.6-70-32.6c-32.27,0-56,10.87-71.2,32.6
			c-15.2,21.74-22.8,53.94-22.8,96.6c0,42.94,7.6,75.27,22.8,97C2231.19,916.8,2254.92,927.66,2287.19,927.66z"/>
		<path d="M2562.39,1004.46v-412.4h68c13.86,0,23.06,6.4,27.6,19.2l6.4,26.8c7.2-7.46,14.6-14.4,22.2-20.8
			c7.6-6.4,15.8-11.93,24.6-16.6c8.8-4.66,18.33-8.33,28.6-11c10.26-2.66,21.4-4,33.4-4c25.33,0,46.26,6.74,62.8,20.2
			c16.53,13.47,29.06,31.4,37.6,53.8c6.66-13.06,14.86-24.33,24.6-33.8c9.73-9.46,20.4-17.13,32-23c11.6-5.86,23.86-10.2,36.8-13
			c12.93-2.8,25.93-4.2,39-4.2c23.2,0,43.73,3.47,61.6,10.4c17.86,6.94,32.86,17.14,45,30.6c12.13,13.47,21.4,29.94,27.8,49.4
			c6.4,19.47,9.6,41.6,9.6,66.4v262h-110.4v-262c0-48.26-20.67-72.4-62-72.4c-9.34,0-17.94,1.54-25.8,4.6
			c-7.87,3.07-14.8,7.67-20.8,13.8c-6,6.14-10.67,13.74-14,22.8c-3.34,9.07-5,19.47-5,31.2v262h-110.4v-262
			c0-26.13-5.14-44.73-15.4-55.8c-10.27-11.06-25.4-16.6-45.4-16.6c-12.8,0-24.87,3-36.2,9c-11.34,6-21.94,14.34-31.8,25v300.4
			H2562.39z"/>
		<path d="M3227.19,649.26c24.26-21.86,51.06-38.2,80.4-49c29.33-10.8,61.06-16.2,95.2-16.2
			c24.53,0,46.46,4,65.8,12c19.33,8,35.73,19.14,49.2,33.4c13.46,14.27,23.8,31.27,31,51c7.2,19.74,10.8,41.34,10.8,64.8v259.2h-50.4
			c-10.4,0-18.34-1.46-23.8-4.4c-5.47-2.93-9.94-9.06-13.4-18.4l-8.8-26.4c-10.4,9.07-20.47,17.07-30.2,24
			c-9.74,6.94-19.8,12.74-30.2,17.4c-10.4,4.67-21.54,8.2-33.4,10.6c-11.87,2.4-25.14,3.6-39.8,3.6c-18.14,0-34.67-2.4-49.6-7.2
			c-14.94-4.8-27.8-11.93-38.6-21.4c-10.8-9.46-19.14-21.26-25-35.4c-5.87-14.13-8.8-30.4-8.8-48.8c0-15.2,3.86-30.4,11.6-45.6
			c7.73-15.2,21-29,39.8-41.4c18.8-12.4,43.86-22.66,75.2-30.8c31.33-8.13,70.6-12.73,117.8-13.8v-21.2c0-25.86-5.47-44.86-16.4-57
			c-10.94-12.13-26.67-18.2-47.2-18.2c-15.2,0-27.87,1.8-38,5.4c-10.14,3.6-19,7.47-26.6,11.6c-7.6,4.14-14.74,8-21.4,11.6
			c-6.67,3.6-14.4,5.4-23.2,5.4c-7.74,0-14.2-1.93-19.4-5.8c-5.2-3.86-9.54-8.46-13-13.8L3227.19,649.26z M3451.99,832.06
			c-26.94,1.34-49.34,3.67-67.2,7c-17.87,3.34-32.07,7.67-42.6,13c-10.54,5.34-18,11.4-22.4,18.2s-6.6,14.2-6.6,22.2
			c0,16,4.46,27.34,13.4,34c8.93,6.67,21.4,10,37.4,10c18.4,0,34.33-3.26,47.8-9.8c13.46-6.53,26.86-16.73,40.2-30.6V832.06z"/>
		<path d="M3747.58,640.06c8.26-8,16.86-15.33,25.8-22c8.93-6.66,18.4-12.4,28.4-17.2c10-4.8,20.8-8.53,32.4-11.2
			c11.6-2.66,24.2-4,37.8-4c22.4,0,42.26,3.87,59.6,11.6c17.33,7.74,31.93,18.54,43.8,32.4c11.86,13.87,20.8,30.4,26.8,49.6
			c6,19.2,9,40.27,9,63.2v262h-110v-262c0-22.93-5.34-40.73-16-53.4c-10.67-12.66-26.4-19-47.2-19c-15.47,0-30,3.34-43.6,10
			c-13.6,6.67-26.54,16-38.8,28v296.4h-110.4v-412.4h68c13.86,0,23.06,6.4,27.6,19.2L3747.58,640.06z"/>
		<path d="M4521.98,1004.46h-110v-333.2h-182.8v215.2c0,11.47,2.73,20.54,8.2,27.2c5.46,6.67,13.26,10,23.4,10
			c5.33,0,9.86-0.6,13.6-1.8c3.73-1.2,6.93-2.53,9.6-4c2.66-1.46,5.13-2.8,7.4-4c2.26-1.2,4.6-1.8,7-1.8c3.2,0,5.86,0.74,8,2.2
			c2.13,1.47,4.26,3.94,6.4,7.4l33.2,52.8c-15.2,12-32.4,21.07-51.6,27.2c-19.2,6.13-39.07,9.2-59.6,9.2c-18.67,0-35.2-2.74-49.6-8.2
			c-14.4-5.46-26.54-13.26-36.4-23.4c-9.87-10.13-17.34-22.4-22.4-36.8c-5.07-14.4-7.6-30.66-7.6-48.8v-222.4h-38.8
			c-5.87,0-10.87-1.86-15-5.6c-4.14-3.73-6.2-9.33-6.2-16.8v-43.2l66-12l22.4-106.8c2.93-12,11.06-18,24.4-18h57.6v125.6h292.8
			V1004.46z M4539.18,474.06c0,9.07-1.87,17.67-5.6,25.8c-3.74,8.14-8.74,15.2-15,21.2c-6.27,6-13.6,10.8-22,14.4
			c-8.4,3.6-17.4,5.4-27,5.4c-9.07,0-17.67-1.8-25.8-5.4c-8.14-3.6-15.27-8.4-21.4-14.4c-6.14-6-11-13.06-14.6-21.2
			c-3.6-8.13-5.4-16.73-5.4-25.8c0-9.33,1.8-18.06,5.4-26.2c3.6-8.13,8.46-15.26,14.6-21.4c6.13-6.13,13.26-11,21.4-14.6
			c8.13-3.6,16.73-5.4,25.8-5.4c9.6,0,18.6,1.8,27,5.4c8.4,3.6,15.73,8.47,22,14.6c6.26,6.14,11.26,13.27,15,21.4
			C4537.31,456,4539.18,464.73,4539.18,474.06z"/>
		<path d="M4914.78,684.06c-3.2,4.27-6.4,7.54-9.6,9.8c-3.2,2.27-7.74,3.4-13.6,3.4c-5.34,0-10.47-1.53-15.4-4.6
			c-4.94-3.06-10.6-6.4-17-10c-6.4-3.6-14-6.93-22.8-10c-8.8-3.06-19.74-4.6-32.8-4.6c-16.54,0-30.87,3-43,9
			c-12.14,6-22.2,14.6-30.2,25.8c-8,11.2-13.94,24.8-17.8,40.8c-3.87,16-5.8,34-5.8,54c0,42.14,8.46,74.4,25.4,96.8
			c16.93,22.4,40.06,33.6,69.4,33.6c10.13,0,18.86-0.86,26.2-2.6c7.33-1.73,13.73-3.93,19.2-6.6c5.46-2.66,10.2-5.6,14.2-8.8
			s7.8-6.13,11.4-8.8c3.6-2.66,7.2-4.86,10.8-6.6c3.6-1.73,7.66-2.6,12.2-2.6c8.53,0,15.2,3.2,20,9.6l31.6,40
			c-11.74,13.6-24.27,24.87-37.6,33.8c-13.34,8.94-27.14,16-41.4,21.2c-14.27,5.2-28.74,8.8-43.4,10.8c-14.67,2-29.2,3-43.6,3
			c-25.34,0-49.34-4.74-72-14.2c-22.67-9.46-42.54-23.26-59.6-41.4c-17.07-18.13-30.6-40.4-40.6-66.8c-10-26.4-15-56.53-15-90.4
			c0-30.13,4.4-58.13,13.2-84c8.8-25.86,21.73-48.26,38.8-67.2c17.06-18.93,38.2-33.8,63.4-44.6c25.2-10.8,54.33-16.2,87.4-16.2
			c31.46,0,59.06,5.07,82.8,15.2c23.73,10.14,45.06,24.8,64,44L4914.78,684.06z"/>
	</g>
</svg>
